<?xml version="1.0" encoding="UTF-8" standalone="no"?><!-- Generator: Gravit.io --><svg xmlns="http://www.w3.org/2000/svg" xmlns:xlink="http://www.w3.org/1999/xlink" style="isolation:isolate" viewBox="0 0 1169.622 365.906" width="1169.622pt" height="365.906pt"><defs><clipPath id="_clipPath_MyQAzciw7XDmgOvF5UaVznvJKZx1VceU"><rect width="1169.622" height="365.906"/></clipPath></defs><g clip-path="url(#_clipPath_MyQAzciw7XDmgOvF5UaVznvJKZx1VceU)"><clipPath id="_clipPath_0leeNe6GjCzRgzdHeIcVw2vyGZoWsTmI"><rect x="0" y="0" width="1169.622" height="365.906" transform="matrix(1,0,0,1,0,0)" fill="rgb(255,255,255)"/></clipPath><g clip-path="url(#_clipPath_0leeNe6GjCzRgzdHeIcVw2vyGZoWsTmI)"><g><path d=" M 105.628 365.906 L 157.703 275.876 L 316.884 365.906 L 264.953 275.792 L 422.512 182.953 L 318.506 182.87 L 316.884 0 L 264.809 90.03 L 105.628 0 L 157.559 90.113 L 0 182.953 L 104.006 183.036 L 105.628 365.906 Z " fill="rgb(116,116,116)"/><clipPath id="_clipPath_E2s6d6OkFF5Z50uf1fisgkxxMJqLzvQm"><path d=" M 105.628 365.906 L 157.703 275.876 L 316.884 365.906 L 264.953 275.792 L 422.512 182.953 L 318.506 182.87 L 316.884 0 L 264.809 90.03 L 105.628 0 L 157.559 90.113 L 0 182.953 L 104.006 183.036 L 105.628 365.906 Z " fill="rgb(255,255,255)"/></clipPath><g clip-path="url(#_clipPath_E2s6d6OkFF5Z50uf1fisgkxxMJqLzvQm)"><mask id="_mask_iN8eyNQJ9w4eUnkPsjfzzxybfcrtS1qu"><path d=" M 105.628 365.906 L 157.703 275.876 L 316.884 365.906 L 264.953 275.792 L 422.512 182.953 L 318.506 182.87 L 316.884 0 L 264.809 90.03 L 105.628 0 L 157.559 90.113 L 0 182.953 L 104.006 183.036 L 105.628 365.906 Z " fill="white" stroke="none"/></mask><path d=" M 105.628 365.906 L 157.703 275.876 L 316.884 365.906 L 264.953 275.792 L 422.512 182.953 L 318.506 182.87 L 316.884 0 L 264.809 90.03 L 105.628 0 L 157.559 90.113 L 0 182.953 L 104.006 183.036 L 105.628 365.906 Z " fill="rgb(116,116,116)"/><path d=" M 105.628 365.906 L 157.703 275.876 L 316.884 365.906 L 264.953 275.792 L 422.512 182.953 L 318.506 182.87 L 316.884 0 L 264.809 90.03 L 105.628 0 L 157.559 90.113 L 0 182.953 L 104.006 183.036 L 105.628 365.906 Z " fill="rgb(116,116,116)" mask="url(#_mask_iN8eyNQJ9w4eUnkPsjfzzxybfcrtS1qu)" vector-effect="non-scaling-stroke" stroke-width="40" stroke="rgb(0,0,0)" stroke-opacity="100" stroke-linejoin="miter" stroke-linecap="square" stroke-miterlimit="4"/></g><mask id="_mask_8mWC4iV298HjWQzxrmR7W6mzbvCRxXnA" x="-200%" y="-200%" width="400%" height="400%"><rect x="-200%" y="-200%" width="400%" height="400%" style="fill:white;"/><line x1="360.833" y1="193" x2="224" y2="193" fill="black" stroke="none"/></mask><line x1="360.833" y1="193" x2="224" y2="193" mask="url(#_mask_8mWC4iV298HjWQzxrmR7W6mzbvCRxXnA)" vector-effect="non-scaling-stroke" stroke-width="20" stroke="rgb(0,0,0)" stroke-opacity="100" stroke-linejoin="miter" stroke-linecap="square" stroke-miterlimit="3"/><mask id="_mask_SumNPORg4Fwc6eVSBCxfzPFljTLOxAUr" x="-200%" y="-200%" width="400%" height="400%"><rect x="-200%" y="-200%" width="400%" height="400%" style="fill:white;"/><line x1="185.834" y1="173" x2="49" y2="173" fill="black" stroke="none"/></mask><line x1="185.834" y1="173" x2="49" y2="173" mask="url(#_mask_SumNPORg4Fwc6eVSBCxfzPFljTLOxAUr)" vector-effect="non-scaling-stroke" stroke-width="20" stroke="rgb(0,0,0)" stroke-opacity="100" stroke-linejoin="miter" stroke-linecap="square" stroke-miterlimit="3"/><circle vector-effect="non-scaling-stroke" cx="211.18181818181807" cy="183.73484848484856" r="40" fill="rgb(0,0,0)"/><clipPath id="_clipPath_RcxZmeosobRiKimpVhtW5p2dCjgq5sse"><rect x="318.506" y="0" width="851.116" height="174.623" transform="matrix(1,0,0,1,0,0)" fill="rgb(255,255,255)"/></clipPath><g clip-path="url(#_clipPath_RcxZmeosobRiKimpVhtW5p2dCjgq5sse)"><g><g clip-path="url(#_clipPath_ForIrvFcZJo84cSGKTPyPqJoDUWIxQBn)"><text transform="matrix(1,0,0,1,318.506,172.855)" style="font-family:'Poppins';font-weight:400;font-size:181px;font-style:normal;font-variant-ligatures:none;fill:#000000;stroke:none;">Limux</text></g><defs><clipPath id="_clipPath_ForIrvFcZJo84cSGKTPyPqJoDUWIxQBn"><rect x="0" y="0" width="516" height="253.4" transform="matrix(1,0,0,1,318.506,-17.195)"/></clipPath></defs></g></g></g></g></g></svg>