<?xml version="1.0" encoding="UTF-8" standalone="no"?>
<svg xmlns="http://www.w3.org/2000/svg" xmlns:xlink="http://www.w3.org/1999/xlink" style="isolation:isolate" viewBox="0 0 1169.622 365.906" width="1169.622pt" height="365.906pt">
  <defs>
	<style type="text/css">
    @import url('https://fonts.googleapis.com/css?family=Poppins:');
 </style>
    <clipPath id="_clipPath_Te29UDN4F5hzHxHN1lo7FPjEVvHEPcJV">
      <rect x="0" y="0" width="1169.622" height="365.906" />
    </clipPath>
  </defs>
  <g clip-path="url(#_clipPath_Te29UDN4F5hzHxHN1lo7FPjEVvHEPcJV)">
    <mask id="_mask_yEvHy1stwv4w7n9UskN3tXAhK8KBtlgq">
      <path d=" M 105.628 365.906 L 157.703 275.876 L 316.884 365.906 L 264.953 275.792 L 422.512 182.953 L 318.506 182.87 L 316.884 0 L 264.809 90.03 L 105.628 0 L 157.559 90.113 L 0 182.953 L 104.006 183.036 L 105.628 365.906 Z " fill="white" stroke="none" />
    </mask>
    <path d=" M 105.628 365.906 L 157.703 275.876 L 316.884 365.906 L 264.953 275.792 L 422.512 182.953 L 318.506 182.87 L 316.884 0 L 264.809 90.03 L 105.628 0 L 157.559 90.113 L 0 182.953 L 104.006 183.036 L 105.628 365.906 Z " fill="rgb(116,116,116)" />
    <path d=" M 105.628 365.906 L 157.703 275.876 L 316.884 365.906 L 264.953 275.792 L 422.512 182.953 L 318.506 182.87 L 316.884 0 L 264.809 90.03 L 105.628 0 L 157.559 90.113 L 0 182.953 L 104.006 183.036 L 105.628 365.906 Z " fill="rgb(116,116,116)" mask="url(#_mask_yEvHy1stwv4w7n9UskN3tXAhK8KBtlgq)" vector-effect="non-scaling-stroke" stroke-width="40" stroke="rgb(0,0,0)" stroke-linejoin="miter" stroke-linecap="square" stroke-miterlimit="4" />
    <line x1="361.015" y1="193.402" x2="224.182" y2="193.402" vector-effect="non-scaling-stroke" stroke-width="20" stroke="rgb(0,0,0)" stroke-linejoin="miter" stroke-linecap="square" stroke-miterlimit="3" />
    <line x1="186.432" y1="173.152" x2="49.598" y2="173.152" vector-effect="non-scaling-stroke" stroke-width="20" stroke="rgb(0,0,0)" stroke-linejoin="miter" stroke-linecap="square" stroke-miterlimit="3" />
    <circle vector-effect="non-scaling-stroke" cx="211.18181818181813" cy="183.73484848484856" r="40" fill="rgb(0,0,0)" />
    <g clip-path="url(#_clipPath_peSM6w4elAwKhayuIhIWLlwkB1Chnsig)">
      <text transform="matrix(1,0,0,1,318.506,172.855)" style="font-family: 'Poppins';font-weight:400;font-size:181px;font-style:normal;fill:#000000;stroke:none;">Limux</text>
    </g>
    <defs>
      <clipPath id="_clipPath_peSM6w4elAwKhayuIhIWLlwkB1Chnsig">
        <rect x="0" y="0" width="851.116" height="174.623" transform="matrix(1,0,0,1,318.506,0)" />
      </clipPath>
    </defs>
  </g>
</svg>