<?xml version="1.0" encoding="UTF-8" standalone="no"?><!-- Generator: Gravit.io --><svg xmlns="http://www.w3.org/2000/svg" xmlns:xlink="http://www.w3.org/1999/xlink" style="isolation:isolate" viewBox="0 0 422.6 365.906" width="422.6pt" height="365.906pt"><defs><clipPath id="_clipPath_tOzLsD0Qx5xPXE0J53RhtHSXgsX0L9av"><rect width="422.6" height="365.906"/></clipPath></defs><g clip-path="url(#_clipPath_tOzLsD0Qx5xPXE0J53RhtHSXgsX0L9av)"><clipPath id="_clipPath_ICt5DSpd23fxbBNIFGMmuEdQIcxs75Bj"><rect x="0" y="0" width="1169.622" height="365.906" transform="matrix(1,0,0,1,0,0)" fill="rgb(255,255,255)"/></clipPath><g clip-path="url(#_clipPath_ICt5DSpd23fxbBNIFGMmuEdQIcxs75Bj)"><g><path d=" M 105.628 365.906 L 157.703 275.876 L 316.884 365.906 L 264.953 275.792 L 422.512 182.953 L 318.506 182.87 L 316.884 0 L 264.809 90.03 L 105.628 0 L 157.559 90.113 L 0 182.953 L 104.006 183.036 L 105.628 365.906 Z " fill="rgb(116,116,116)"/><clipPath id="_clipPath_OI5gMiEi6gTAwHgySzbg2rFU0XMANA1g"><path d=" M 105.628 365.906 L 157.703 275.876 L 316.884 365.906 L 264.953 275.792 L 422.512 182.953 L 318.506 182.87 L 316.884 0 L 264.809 90.03 L 105.628 0 L 157.559 90.113 L 0 182.953 L 104.006 183.036 L 105.628 365.906 Z " fill="rgb(255,255,255)"/></clipPath><g clip-path="url(#_clipPath_OI5gMiEi6gTAwHgySzbg2rFU0XMANA1g)"><mask id="_mask_10cl01KZoKTvl5AajAQjIskOl9jEv8w7"><path d=" M 105.628 365.906 L 157.703 275.876 L 316.884 365.906 L 264.953 275.792 L 422.512 182.953 L 318.506 182.87 L 316.884 0 L 264.809 90.03 L 105.628 0 L 157.559 90.113 L 0 182.953 L 104.006 183.036 L 105.628 365.906 Z " fill="white" stroke="none"/></mask><path d=" M 105.628 365.906 L 157.703 275.876 L 316.884 365.906 L 264.953 275.792 L 422.512 182.953 L 318.506 182.87 L 316.884 0 L 264.809 90.03 L 105.628 0 L 157.559 90.113 L 0 182.953 L 104.006 183.036 L 105.628 365.906 Z " fill="rgb(116,116,116)"/><path d=" M 105.628 365.906 L 157.703 275.876 L 316.884 365.906 L 264.953 275.792 L 422.512 182.953 L 318.506 182.87 L 316.884 0 L 264.809 90.03 L 105.628 0 L 157.559 90.113 L 0 182.953 L 104.006 183.036 L 105.628 365.906 Z " fill="rgb(116,116,116)" mask="url(#_mask_10cl01KZoKTvl5AajAQjIskOl9jEv8w7)" vector-effect="non-scaling-stroke" stroke-width="40" stroke="rgb(0,0,0)" stroke-opacity="100" stroke-linejoin="miter" stroke-linecap="square" stroke-miterlimit="4"/></g><mask id="_mask_uak3MlLkpSwn17pRmqlgjPl7y2QOvQEo" x="-200%" y="-200%" width="400%" height="400%"><rect x="-200%" y="-200%" width="400%" height="400%" style="fill:white;"/><line x1="360.833" y1="193" x2="224" y2="193" fill="black" stroke="none"/></mask><line x1="360.833" y1="193" x2="224" y2="193" mask="url(#_mask_uak3MlLkpSwn17pRmqlgjPl7y2QOvQEo)" vector-effect="non-scaling-stroke" stroke-width="20" stroke="rgb(0,0,0)" stroke-opacity="100" stroke-linejoin="miter" stroke-linecap="square" stroke-miterlimit="3"/><mask id="_mask_N7DfiJOp5ECMtyWFiWCkAMQZo2hB2UgX" x="-200%" y="-200%" width="400%" height="400%"><rect x="-200%" y="-200%" width="400%" height="400%" style="fill:white;"/><line x1="185.834" y1="173" x2="49" y2="173" fill="black" stroke="none"/></mask><line x1="185.834" y1="173" x2="49" y2="173" mask="url(#_mask_N7DfiJOp5ECMtyWFiWCkAMQZo2hB2UgX)" vector-effect="non-scaling-stroke" stroke-width="20" stroke="rgb(0,0,0)" stroke-opacity="100" stroke-linejoin="miter" stroke-linecap="square" stroke-miterlimit="3"/><circle vector-effect="non-scaling-stroke" cx="211.18181818181807" cy="183.73484848484856" r="40" fill="rgb(0,0,0)"/></g></g></g></svg>